# xmcd
#
# Track frame offsets:
#	150
#	12915
#	24102
#	36937
#	50087
#	62922
#	76237
#	86697
#	97810
#	113660
#	129867
#	142230
#
# Disc length: 1998 seconds
#
# Revision: 1
# Processed by: cddbd v1.5.1PL0 Copyright (c) Steve Scherf et al.
# Submitted via: EasyCDDAExtractor 6.5.7.1
#
DISCID=9307cc0c
DTITLE=Os Guapos - Baile de Candeeiro
DYEAR=1996
DGENRE=Gaúcha
TTITLE0=Baile de Candeeiro
TTITLE1=Bicho Feio
TTITLE2=Vanerão da Noite Inteira
TTITLE3=Vem pro Xote
TTITLE4=O Contrapasso
TTITLE5=Mundo de Amor
TTITLE6=Xote Antigo
TTITLE7=Rancheira Animada
TTITLE8=Tá assim de Graxaim
TTITLE9=Mágoas de Tropeiro
TTITLE10=Bugiu Machista
TTITLE11=Parabéns Crioulo
EXTD=
EXTT0=
EXTT1=
EXTT2=
EXTT3=
EXTT4=
EXTT5=
EXTT6=
EXTT7=
EXTT8=
EXTT9=
EXTT10=
EXTT11=
PLAYORDER=
